<mxfile host="b4a9318e-83fd-4793-a4c7-6fe9f0b41db9" modified="2020-09-26T10:06:24.947Z" agent="5.0 (Windows NT 10.0; Win64; x64) AppleWebKit/537.36 (KHTML, like Gecko) Code/1.49.2 Chrome/83.0.4103.122 Electron/9.2.1 Safari/537.36" etag="-LS-eBSUGQaXqgRIzJau" version="13.1.3">
    <diagram id="6hGFLwfOUW9BJ-s0fimq" name="Page-1">
        <mxGraphModel dx="908" dy="832" grid="1" gridSize="10" guides="1" tooltips="1" connect="1" arrows="1" fold="1" page="1" pageScale="1" pageWidth="827" pageHeight="1169" math="0" shadow="0">
            <root>
                <mxCell id="0"/>
                <mxCell id="1" parent="0"/>
                <mxCell id="18" value="Use" style="endArrow=open;endSize=12;dashed=1;html=1;" edge="1" parent="1" source="15" target="8">
                    <mxGeometry width="160" relative="1" as="geometry">
                        <mxPoint x="180" y="100" as="sourcePoint"/>
                        <mxPoint x="540" y="220" as="targetPoint"/>
                    </mxGeometry>
                </mxCell>
                <mxCell id="20" value="Extends" style="endArrow=block;endSize=16;endFill=0;html=1;" edge="1" parent="1" source="11" target="2">
                    <mxGeometry width="160" relative="1" as="geometry">
                        <mxPoint x="380" y="220" as="sourcePoint"/>
                        <mxPoint x="540" y="220" as="targetPoint"/>
                    </mxGeometry>
                </mxCell>
                <mxCell id="21" value="" style="endArrow=block;dashed=1;endFill=0;endSize=12;html=1;" edge="1" parent="1" source="11" target="8">
                    <mxGeometry width="160" relative="1" as="geometry">
                        <mxPoint x="380" y="220" as="sourcePoint"/>
                        <mxPoint x="610" y="200" as="targetPoint"/>
                    </mxGeometry>
                </mxCell>
                <mxCell id="25" value="Use" style="endArrow=open;endSize=12;dashed=1;html=1;" edge="1" parent="1" source="22" target="15">
                    <mxGeometry width="160" relative="1" as="geometry">
                        <mxPoint x="240" y="110" as="sourcePoint"/>
                        <mxPoint x="314" y="110" as="targetPoint"/>
                    </mxGeometry>
                </mxCell>
                <mxCell id="26" value="Use" style="endArrow=open;endSize=12;dashed=1;html=1;" edge="1" parent="1" source="22" target="11">
                    <mxGeometry width="160" relative="1" as="geometry">
                        <mxPoint x="250" y="120" as="sourcePoint"/>
                        <mxPoint x="324" y="120" as="targetPoint"/>
                    </mxGeometry>
                </mxCell>
                <mxCell id="11" value="VoltageAdapter" style="swimlane;fontStyle=1;align=center;verticalAlign=top;childLayout=stackLayout;horizontal=1;startSize=26;horizontalStack=0;resizeParent=1;resizeParentMax=0;resizeLast=0;collapsible=1;marginBottom=0;" vertex="1" parent="1">
                    <mxGeometry x="440" y="330" width="160" height="34" as="geometry"/>
                </mxCell>
                <mxCell id="13" value="" style="line;strokeWidth=1;fillColor=none;align=left;verticalAlign=middle;spacingTop=-1;spacingLeft=3;spacingRight=3;rotatable=0;labelPosition=right;points=[];portConstraint=eastwest;" vertex="1" parent="11">
                    <mxGeometry y="26" width="160" height="8" as="geometry"/>
                </mxCell>
                <mxCell id="2" value="Voltage220V" style="swimlane;fontStyle=1;align=center;verticalAlign=top;childLayout=stackLayout;horizontal=1;startSize=26;horizontalStack=0;resizeParent=1;resizeParentMax=0;resizeLast=0;collapsible=1;marginBottom=0;" vertex="1" parent="1">
                    <mxGeometry x="440" y="470" width="160" height="60" as="geometry"/>
                </mxCell>
                <mxCell id="4" value="" style="line;strokeWidth=1;fillColor=none;align=left;verticalAlign=middle;spacingTop=-1;spacingLeft=3;spacingRight=3;rotatable=0;labelPosition=right;points=[];portConstraint=eastwest;" vertex="1" parent="2">
                    <mxGeometry y="26" width="160" height="8" as="geometry"/>
                </mxCell>
                <mxCell id="5" value="+ output220V(): void" style="text;strokeColor=none;fillColor=none;align=left;verticalAlign=top;spacingLeft=4;spacingRight=4;overflow=hidden;rotatable=0;points=[[0,0.5],[1,0.5]];portConstraint=eastwest;" vertex="1" parent="2">
                    <mxGeometry y="34" width="160" height="26" as="geometry"/>
                </mxCell>
                <mxCell id="8" value="&lt;&lt;Interface&gt;&gt;&#10;IVoltage5V" style="swimlane;fontStyle=1;align=center;verticalAlign=top;childLayout=stackLayout;horizontal=1;startSize=40;horizontalStack=0;resizeParent=1;resizeParentMax=0;resizeLast=0;collapsible=1;marginBottom=0;" vertex="1" parent="1">
                    <mxGeometry x="440" y="120" width="160" height="74" as="geometry"/>
                </mxCell>
                <mxCell id="9" value="" style="line;strokeWidth=1;fillColor=none;align=left;verticalAlign=middle;spacingTop=-1;spacingLeft=3;spacingRight=3;rotatable=0;labelPosition=right;points=[];portConstraint=eastwest;" vertex="1" parent="8">
                    <mxGeometry y="40" width="160" height="8" as="geometry"/>
                </mxCell>
                <mxCell id="10" value="+ output5V(): void" style="text;strokeColor=none;fillColor=none;align=left;verticalAlign=top;spacingLeft=4;spacingRight=4;overflow=hidden;rotatable=0;points=[[0,0.5],[1,0.5]];portConstraint=eastwest;" vertex="1" parent="8">
                    <mxGeometry y="48" width="160" height="26" as="geometry"/>
                </mxCell>
                <mxCell id="22" value="Client" style="swimlane;fontStyle=1;align=center;verticalAlign=top;childLayout=stackLayout;horizontal=1;startSize=26;horizontalStack=0;resizeParent=1;resizeParentMax=0;resizeLast=0;collapsible=1;marginBottom=0;" vertex="1" parent="1">
                    <mxGeometry x="95" y="330" width="110" height="34" as="geometry"/>
                </mxCell>
                <mxCell id="23" value="" style="line;strokeWidth=1;fillColor=none;align=left;verticalAlign=middle;spacingTop=-1;spacingLeft=3;spacingRight=3;rotatable=0;labelPosition=right;points=[];portConstraint=eastwest;" vertex="1" parent="22">
                    <mxGeometry y="26" width="110" height="8" as="geometry"/>
                </mxCell>
                <mxCell id="15" value="Phone" style="swimlane;fontStyle=1;align=center;verticalAlign=top;childLayout=stackLayout;horizontal=1;startSize=26;horizontalStack=0;resizeParent=1;resizeParentMax=0;resizeLast=0;collapsible=1;marginBottom=0;" vertex="1" parent="1">
                    <mxGeometry x="70" y="127" width="160" height="60" as="geometry"/>
                </mxCell>
                <mxCell id="16" value="" style="line;strokeWidth=1;fillColor=none;align=left;verticalAlign=middle;spacingTop=-1;spacingLeft=3;spacingRight=3;rotatable=0;labelPosition=right;points=[];portConstraint=eastwest;" vertex="1" parent="15">
                    <mxGeometry y="26" width="160" height="8" as="geometry"/>
                </mxCell>
                <mxCell id="17" value="+ charging(): void" style="text;strokeColor=none;fillColor=none;align=left;verticalAlign=top;spacingLeft=4;spacingRight=4;overflow=hidden;rotatable=0;points=[[0,0.5],[1,0.5]];portConstraint=eastwest;" vertex="1" parent="15">
                    <mxGeometry y="34" width="160" height="26" as="geometry"/>
                </mxCell>
            </root>
        </mxGraphModel>
    </diagram>
</mxfile>